# xmcd
#
# Track frame offsets: 
#        150
#        12822
#        30832
#        42020
#        51387
#        75727
#        90497
#        105487
#        116872
#        123587
#        135682
#        144405
#        157182
#        172242
#        182375
#        199490
#        216330
#        228125
#        239505
#
# Disc length: 3334 seconds
#
# Revision: 2
# Processed by: cddbd v1.5.2PL0 Copyright (c) Steve Scherf et al.
# Submitted via: ExactAudioCopy v1.0b6
#
DISCID=060d0413
DTITLE=鮫島　有美子 - 日本の歌
DYEAR=2002
DGENRE=Vocal
TTITLE0=この道
TTITLE1=叱られて
TTITLE2=早春賦
TTITLE3=花
TTITLE4=荒城の月
TTITLE5=砂山
TTITLE6=カチューシャの唄
TTITLE7=赤とんぼ
TTITLE8=宵待草
TTITLE9=浜辺の歌
TTITLE10=待ちぼうけ
TTITLE11=平城山
TTITLE12=椰子の実
TTITLE13=夏の思い出
TTITLE14=霧と話した
TTITLE15=雪の降る街を
TTITLE16=かやの本山の
TTITLE17=出船
TTITLE18=花の町
EXTD=Label: Denon  COCO-70470 YEAR: 2002
EXTT0=
EXTT1=
EXTT2=
EXTT3=
EXTT4=
EXTT5=
EXTT6=
EXTT7=
EXTT8=
EXTT9=
EXTT10=
EXTT11=
EXTT12=
EXTT13=
EXTT14=
EXTT15=
EXTT16=
EXTT17=
EXTT18=
PLAYORDER=
